<svg xmlns="http://www.w3.org/2000/svg" width="24" height="18" viewBox="0 0 24 18">
    <g fill="#9E9E9E" fill-rule="evenodd">
        <path d="M21 0c1.65685 0 3 1.34315 3 3v12c0 1.65685-1.34315 3-3 3H3c-1.65685 0-3-1.34315-3-3V3c0-1.65685 1.34315-3 3-3h18Zm0 2H3c-.51284 0-.9355.38604-.99327.88338L2 3v12c0 .51284.38604.9355.88338.99327L3 16h18c.51284 0 .9355-.38604.99327-.88338L22 15V3c0-.51284-.38604-.9355-.88338-.99327L21 2Z"/>
        <path d="M10 6h9c.55228 0 1 .44772 1 1v6c0 .55228-.44772 1-1 1h-9c-.55228 0-1-.44772-1-1V7c0-.55228.44772-1 1-1Z"/>
    </g>
</svg>